<?xml version="1.0" encoding="utf-8"?>
<svg version="1.1" xmlns="http://www.w3.org/2000/svg" xmlns:xlink="http://www.w3.org/1999/xlink" x="0px" y="0px" width="40px"
	 height="40px" viewBox="0 0 40 40" style="enable-background:new 0 0 40 40;" xml:space="preserve">
<g>
<path d="M20 0C8.955 0 0 8.955 0 20s8.955 20 20 20 20-8.955 20-20S31.045 0 20 0Zm0 36.364C10.96 36.364 3.636 29.04 3.636 20 3.636 10.96 10.96 3.636 20 3.636c9.04 0 16.364 7.324 16.364 16.364 0 9.04-7.324 16.364-16.364 16.364zm-7.273-3.898 13.574-8.96.972-16.233-13.574 8.96ZM20 16.364A3.64 3.64 0 0 1 23.636 20 3.64 3.64 0 0 1 20 23.636 3.64 3.64 0 0 1 16.364 20 3.64 3.64 0 0 1 20 16.364z" />
</g>
</svg>
