<?xml version="1.0" encoding="utf-8"?>
<!-- Generator: Adobe Adobe Illustrator 24.2.0, SVG Export Plug-In . SVG Version: 6.00 Build 0)  -->
<svg version="1.1" xmlns="http://www.w3.org/2000/svg" xmlns:xlink="http://www.w3.org/1999/xlink" x="0px" y="0px" width="40px"
	 height="40px" viewBox="0 0 40 40" style="enable-background:new 0 0 40 40;" xml:space="preserve">
<style type="text/css">
	.st0{fill:#FF7F50;}
	.st1{fill:#E67147;}
</style>
<g id="_x30__no_tiles_around">
	<path class="st0" d="M4,20C4,20,4,20,4,20C6.48,14.92,14.67,5.89,20,4c0,0,0,0,0,0c5.1,2.45,14.12,10.66,16,16c0,0,0,0,0,0
		c-2.44,5.1-10.66,14.12-16,16c0,0,0,0,0,0C14.76,33.88,6.16,25.23,4,20z"/>
</g>
<g id="_x31__top">
	<path class="st0" d="M34,8c0-2.61-0.79-4.93-2-6.39V0H8v4.16C5.72,4.9,4,8.13,4,12s1.72,7.1,4,7.84V20c0,6.63,5.37,12,12,12
		s12-5.37,12-12v-5.61C33.21,12.93,34,10.61,34,8z"/>
	<ellipse class="st1" cx="8" cy="12" rx="2" ry="4"/>
	<ellipse class="st1" cx="25" cy="20" rx="3" ry="4"/>
	<circle class="st1" cx="20" cy="6" r="4"/>
</g>
<g id="_x32__right">
	<path class="st0" d="M40,8h-6.16C33.1,5.72,29.87,4,26,4c-3.96,0-7.24,1.8-7.88,4.16C12.39,9.07,8,14.01,8,20c0,6.63,5.37,12,12,12
		h3.61c1.46,1.21,3.77,2,6.39,2s4.93-0.79,6.39-2H40V8z"/>
	<ellipse class="st1" cx="26" cy="8" rx="4" ry="2"/>
	<ellipse class="st1" cx="18" cy="23" rx="4" ry="3"/>
	<circle class="st1" cx="34" cy="20" r="4"/>
</g>
<g id="_x33__top_and_right">
	<path class="st0" d="M40,8h-4c-0.74,0-1.42-0.21-2.02-0.56c-0.1-2.38-0.86-4.47-1.98-5.82V0H8v4.16C5.72,4.9,4,8.13,4,12
		s1.72,7.1,4,7.84V20c0,6.63,5.37,12,12,12h2.16c0.74,2.28,3.97,4,7.84,4s7.1-1.72,7.84-4H40V8z"/>
	<ellipse class="st1" cx="8" cy="12" rx="2" ry="4"/>
	<ellipse class="st1" cx="17" cy="6" rx="3" ry="4"/>
	<circle class="st1" cx="34" cy="20" r="4"/>
	<ellipse class="st1" cx="30" cy="32" rx="4" ry="2"/>
</g>
<g id="_x34__bottom">
	<path class="st0" d="M34,32c0-2.61-0.79-4.93-2-6.39V20c0-6.63-5.37-12-12-12C14.01,8,9.07,12.39,8.16,18.12
		C5.8,18.76,4,22.04,4,26c0,3.87,1.72,7.1,4,7.84V40h24v-1.61C33.21,36.93,34,34.61,34,32z"/>
	<ellipse class="st1" cx="8" cy="26" rx="2" ry="4"/>
	<ellipse class="st1" cx="25" cy="18" rx="3" ry="4"/>
	<circle class="st1" cx="20" cy="34" r="4"/>
</g>
<g id="_x35__bottom_and_top">
	<g>
		<path class="st0" d="M32,25.61v-7.77c2.28-0.74,4-3.97,4-7.84s-1.72-7.1-4-7.84V0H8v3.61C6.79,5.07,6,7.39,6,10s0.79,4.93,2,6.39
			v1.77C5.72,18.9,4,22.13,4,26s1.72,7.1,4,7.84V40h24v-1.61c1.21-1.46,2-3.77,2-6.39S33.21,27.07,32,25.61z"/>
	</g>
	<ellipse class="st1" cx="8" cy="26" rx="2" ry="4"/>
	<ellipse class="st1" cx="32" cy="10" rx="2" ry="4"/>
	<circle class="st1" cx="20" cy="18" r="4"/>
</g>
<g id="_x36__bottom_and_right">
	<path class="st0" d="M35.84,8C35.1,5.72,31.87,4,28,4s-7.1,1.72-7.84,4H20c-5.23,0-9.67,3.35-11.31,8.03C6.07,16.28,4,19.75,4,24
		c0,3.87,1.72,7.1,4,7.84V40h24v-4c0-0.74,0.21-1.42,0.56-2.02c2.38-0.1,4.47-0.86,5.82-1.98H40V8H35.84z"/>
	<ellipse class="st1" cx="28" cy="8" rx="4" ry="2"/>
	<circle class="st1" cx="20" cy="34" r="4"/>
	<ellipse class="st1" cx="34" cy="17" rx="4" ry="3"/>
	<ellipse class="st1" cx="8" cy="24" rx="2" ry="4"/>
</g>
<g id="_x37__bottom_and_right_and_top">
	<path class="st0" d="M36,8c-0.74,0-1.42-0.21-2.02-0.56c-0.1-2.38-0.86-4.47-1.98-5.82V0H8v4.16C5.72,4.9,4,8.13,4,12
		s1.72,7.1,4,7.84v5.77C6.79,27.07,6,29.39,6,32s0.79,4.93,2,6.39V40h24v-4c0-2.21,1.79-4,4-4h4V8H36z"/>
	<ellipse class="st1" cx="8" cy="12" rx="2" ry="4"/>
	<ellipse class="st1" cx="25" cy="34" rx="3" ry="4"/>
	<circle class="st1" cx="34" cy="20" r="4"/>
</g>
<g id="_x38__left">
	<path class="st0" d="M22.76,8.33C21.34,6.93,18.85,6,16,6c-2.61,0-4.93,0.79-6.39,2H0v24h2.16c0.74,2.28,3.97,4,7.84,4
		s7.1-1.72,7.84-4H20c6.63,0,12-5.37,12-12C32,14.32,28.05,9.58,22.76,8.33z"/>
	<ellipse class="st1" cx="10" cy="32" rx="4" ry="2"/>
	<ellipse class="st1" cx="6" cy="15" rx="4" ry="3"/>
	<circle class="st1" cx="22" cy="20" r="4"/>
</g>
<g id="_x39__left_and_top">
	<path class="st0" d="M36,10c0-3.87-1.72-7.1-4-7.84V0H8v4c0,0.06-0.01,0.11-0.02,0.17C5.05,4.64,2.77,6.13,2.16,8H0v24h8.16
		c0.74,2.28,3.97,4,7.84,4c4.25,0,7.72-2.07,7.97-4.69C28.65,29.67,32,25.23,32,20v-2.16C34.28,17.1,36,13.87,36,10z"/>
	<ellipse class="st1" cx="32" cy="10" rx="2" ry="4"/>
	<ellipse class="st1" cx="16" cy="32" rx="4" ry="2"/>
	<ellipse class="st1" cx="6" cy="15" rx="4" ry="3"/>
	<circle class="st1" cx="24" cy="20" r="4"/>
</g>
<g id="_x31_0_left_and_right">
	<path class="st0" d="M40,8h-9.61C28.93,6.79,26.61,6,24,6s-4.93,0.79-6.39,2h-1.77C15.1,5.72,11.87,4,8,4S0.9,5.72,0.16,8H0v24
		h5.61c1.46,1.21,3.77,2,6.39,2s4.93-0.79,6.39-2h3.77c0.74,2.28,3.97,4,7.84,4s7.1-1.72,7.84-4H40V8z"/>
	<ellipse class="st1" cx="30" cy="32" rx="4" ry="2"/>
	<ellipse class="st1" cx="34" cy="15" rx="4" ry="3"/>
	<ellipse class="st1" cx="6" cy="25" rx="4" ry="3"/>
	<circle class="st1" cx="20" cy="20" r="4"/>
	<ellipse class="st1" cx="8" cy="8" rx="4" ry="2"/>
</g>
<g id="_x31_1_left_and_top_and_right">
	<path class="st0" d="M40,8h-4c-0.37,0-0.72-0.07-1.06-0.16C34.69,5.07,33.55,2.76,32,1.67V0H8v4c0,0.24-0.03,0.47-0.07,0.7
		c-1.9,0.71-3.3,1.88-3.76,3.28C4.11,7.99,4.06,8,4,8H0v24h2.16c0.74,2.28,3.97,4,7.84,4s7.1-1.72,7.84-4h1.77
		c1.46,1.21,3.77,2,6.39,2s4.93-0.79,6.39-2H40V8z"/>
	<ellipse class="st1" cx="31" cy="9" rx="2" ry="4"/>
	<ellipse class="st1" cx="30" cy="25" rx="4" ry="3"/>
	<ellipse class="st1" cx="15" cy="6" rx="3" ry="4"/>
	<circle class="st1" cx="6" cy="20" r="4"/>
	<ellipse class="st1" cx="10" cy="32" rx="4" ry="2"/>
</g>
<g id="_x31_2_left_and_bottom">
	<path class="st0" d="M36,24c0-4.25-2.07-7.72-4.69-7.97C29.67,11.35,25.23,8,20,8h-2.16C17.1,5.72,13.87,4,10,4S2.9,5.72,2.16,8H0
		v24h4c0.74,0,1.42,0.21,2.02,0.56c0.1,2.38,0.86,4.47,1.98,5.82V40h24v-8.16C34.28,31.1,36,27.87,36,24z"/>
	<ellipse class="st1" cx="32" cy="24" rx="2" ry="4"/>
	<circle class="st1" cx="20" cy="34" r="4"/>
	<ellipse class="st1" cx="10" cy="8" rx="4" ry="2"/>
	<ellipse class="st1" cx="6" cy="25" rx="4" ry="3"/>
	<ellipse class="st1" cx="18" cy="17" rx="4" ry="3"/>
</g>
<g id="_x31_3_left_and_top_and_bottom">
	<path class="st0" d="M32,21.61v-1.77c2.28-0.74,4-3.97,4-7.84s-1.72-7.1-4-7.84V0H8v1.61C6.88,2.96,6.12,5.05,6.02,7.44
		C5.42,7.79,4.74,8,4,8H0v24h4c0,3.87,1.72,7.1,4,7.84V40h24v-5.61c1.21-1.46,2-3.77,2-6.39S33.21,23.07,32,21.61z"/>
	<ellipse class="st1" cx="32" cy="12" rx="2" ry="4"/>
	<ellipse class="st1" cx="8" cy="32" rx="2" ry="4"/>
	<circle class="st1" cx="20" cy="20" r="4"/>
	<ellipse class="st1" cx="25" cy="32" rx="3" ry="4"/>
	<ellipse class="st1" cx="6" cy="17" rx="4" ry="3"/>
</g>
<g id="_x31_4_left_and_right_and_bottom">
	<path class="st0" d="M34.39,8C32.93,6.79,30.61,6,28,6s-4.93,0.79-6.39,2h-3.77C17.1,5.72,13.87,4,10,4S2.9,5.72,2.16,8H0v24h1.61
		c1.35,1.12,3.44,1.88,5.82,1.98C7.79,34.58,8,35.26,8,36v4h24v-4c3.87,0,7.1-1.72,7.84-4H40V8H34.39z"/>
	<ellipse class="st1" cx="32" cy="32" rx="4" ry="2"/>
	<ellipse class="st1" cx="10" cy="8" rx="4" ry="2"/>
	<circle class="st1" cx="20" cy="20" r="4"/>
	<ellipse class="st1" cx="34" cy="15" rx="4" ry="3"/>
	<ellipse class="st1" cx="15" cy="34" rx="3" ry="4"/>
</g>
<g id="_x31_5_all">
	<path class="st0" d="M37.84,8c-0.61-1.87-2.89-3.36-5.82-3.83C32.01,4.11,32,4.06,32,4V0H8v1.61C6.88,2.96,6.12,5.05,6.02,7.44
		C5.42,7.79,4.74,8,4,8H0v24h4c0,3.87,1.72,7.1,4,7.84V40h24v-4c0-0.74,0.21-1.42,0.56-2.02c2.38-0.1,4.47-0.86,5.82-1.98H40V8
		H37.84z"/>
	<ellipse class="st1" cx="8" cy="32" rx="2" ry="4"/>
	<ellipse class="st1" cx="30" cy="8" rx="4" ry="2"/>
	<circle class="st1" cx="21" cy="21" r="5"/>
	<ellipse class="st1" cx="8" cy="15" rx="4" ry="5"/>
	<ellipse class="st1" cx="26" cy="33" rx="4" ry="5"/>
</g>
</svg>
